Coordinates
version=1
nRows=12
nColumns=33
inDegrees=yes

Units are S.I. units (second, meters, Newtons, ...)
Angles are in degrees.

endheader
time	ground_thorax_rot_x	ground_thorax_rot_y	ground_thorax_rot_z	ground_thorax_tx	ground_thorax_ty	ground_thorax_tz	clav_prot_r	clav_elev_r	scapula_abduction_r	scapula_elevation_r	scapula_upward_rot_r	scapula_winging_r	shoulder_elv_r	plane_of_elev_r	axial_rot_r	elbow_flexion_r	pro_sup_r	wrist_flex_r	wrist_dev_r	clav_prot_l	clav_elev_l	scapula_abduction_l	scapula_elevation_l	scapula_upward_rot_l	scapula_winging_l	shoulder_elv_l	plane_of_elev_l	axial_rot_l	elbow_flexion_l	pro_sup_l	wrist_flex_l	wrist_dev_l
      5.53000000	    -41.57869884	    -11.24621123	     15.15290314	   -208.03417863	    823.82581190	     -2.61285331	      9.43877501	    -45.00000000	     40.27294111	    -45.00000000	    -42.21097701	   2060.64074753	  -2986.27203440	    147.51155561	   -109.21131159	   1465.59299121	    158.91757297	     12.51914982	      4.75295352	     15.95856376	     38.42529703	    -39.61394805	    -45.00000000	    -45.00000000	  -1714.87470504	  -1007.41459413	     26.01570370	     -6.24390926	   1807.81450836	   -326.25427436	      4.99397882	    -22.90820993
      5.54000000	    -41.60602378	    -11.13419285	     15.14440468	   -205.92513820	    824.05915683	     -2.57200683	      9.42736099	    -45.00000000	     40.37989337	    -45.00000000	    -41.63690347	   2060.70908855	  -2986.29758156	    147.44798745	   -109.45243008	   1465.61310746	    159.59809795	     12.43646798	      4.76626867	     15.94681200	     38.40340651	    -39.79485408	    -45.00000000	    -45.00000000	  -1714.93809835	  -1007.33380431	     26.07918703	     -5.95194082	   1807.89569051	   -326.85258258	      5.09920201	    -22.86992980
      5.55000000	    -41.56774171	    -11.10386972	     15.20776568	   -203.70102554	    824.27798438	     -2.51885288	      9.38535147	    -45.00000000	     40.49541652	    -45.00000000	    -41.06408104	   2060.86938704	  -2986.21146119	    147.43106070	   -109.68175661	   1465.61245866	    160.34089684	     12.35776692	      4.73946174	     15.93586192	     38.39455053	    -39.86365666	    -45.00000000	    -45.00000000	  -1715.06450425	  -1007.23565543	     26.11957453	     -5.59951066	   1807.99423460	   -327.54918953	      5.22527817	    -22.83129040
      5.56000000	    -41.59815757	    -10.87089154	     14.90440404	   -201.35848116	    824.46314331	     -2.46518618	      9.40735332	    -45.00000000	     40.94542856	    -45.00000000	    -40.05463262	   2060.97705616	  -2986.29144477	    147.41566934	   -109.96730516	   1465.63797056	    161.32017028	     12.26640349	      4.73209197	     16.22554298	     38.55856022	    -40.13988128	    -45.00000000	    -45.00000000	  -1714.95242373	  -1007.34829047	     26.41052435	     -5.29627321	   1807.94021502	   -328.41897381	      5.45222145	    -22.80572351
      5.57000000	    -41.55293214	    -10.75586667	     14.86826347	   -198.89632608	    824.61439734	     -2.40955749	      9.38411241	    -45.00000000	     41.29565733	    -45.00000000	    -38.83866397	   2061.12350414	  -2986.30315589	    147.65528586	   -110.06985573	   1465.67548471	    162.55355782	     12.17520614	      4.65337259	     16.60125554	     38.76757773	    -40.40092339	    -45.00000000	    -45.00000000	  -1714.92882545	  -1007.46302702	     26.55613060	     -4.86858972	   1808.01175754	   -329.59282122	      5.65696606	    -22.75270537
      5.58000000	    -41.51719988	    -10.72426167	     14.90879028	   -196.30870966	    824.73094951	     -2.35035296	      9.47766058	    -45.00000000	     41.46481967	    -45.00000000	    -38.44488726	   2061.16897060	  -2986.33969874	    147.40744983	   -110.11186196	   1465.62152702	    163.62394657	     12.05966340	      4.71682514	     16.19128168	     38.69629776	    -40.46142922	    -45.00000000	    -44.97240565	  -1715.05705027	  -1007.33236675	     26.67899399	     -4.66923412	   1808.05889494	   -330.54371339	      6.02181436	    -22.77510563
      5.59000000	    -41.46632778	    -10.63336440	     14.90865226	   -193.58238939	    824.82465119	     -2.27481496	      9.43103893	    -45.00000000	     41.81823281	    -45.00000000	    -37.39726748	   2061.34264096	  -2986.30817660	    147.59493409	   -110.26261309	   1465.61024475	    164.94344888	     11.96090980	      4.61681421	     16.51907969	     38.88623446	    -40.65388053	    -45.00000000	    -44.61764124	  -1715.02122090	  -1007.46001564	     26.77223872	     -4.35368570	   1808.14244662	   -331.67807618	      6.25205252	    -22.71017912
      5.60000000	    -41.46331914	    -10.49071091	     14.78660960	   -190.71386255	    824.88731519	     -2.18260196	      9.47110966	    -45.00000000	     42.06115325	    -45.00000000	    -36.64327673	   2061.49292348	  -2986.37484359	    147.49687375	   -110.30840373	   1465.55855711	    166.22347811	     11.84414306	      4.60034466	     16.35095956	     39.01268235	    -40.72226188	    -45.00000000	    -43.99324586	  -1715.11264495	  -1007.52868830	     26.81933346	     -4.18229351	   1808.15247112	   -332.68115946	      6.64600214	    -22.69977478
      5.61000000	    -41.45646493	    -10.29101818	     14.76255230	   -187.69744684	    824.92125114	     -2.06482121	      9.41200078	    -45.00000000	     42.32585148	    -45.00000000	    -35.20620807	   2061.66698759	  -2986.45000925	    147.82129847	   -110.19247121	   1465.63167998	    167.89439478	     11.72997148	      4.33721978	     16.85531653	     39.20892611	    -41.06616125	    -45.00000000	    -43.55428213	  -1715.23045841	  -1007.64171603	     26.77241003	     -3.77524678	   1808.16869256	   -333.98234379	      6.80597456	    -22.53161366
      5.62000000	    -41.46742596	    -10.12475303	     14.59332054	   -184.53211565	    824.90800174	     -1.92611981	      9.39482266	    -45.00000000	     42.64386387	    -45.00000000	    -34.23636535	   2061.83182425	  -2986.54356886	    147.81567596	   -110.08221533	   1465.55771825	    169.47657125	     11.59233202	      4.32003224	     16.81619648	     39.38461973	    -41.19796994	    -45.00000000	    -42.89562345	  -1715.25518116	  -1007.76216779	     26.88189638	     -3.61393324	   1808.19573170	   -335.02463278	      7.20259109	    -22.47505142
      5.63000000	    -41.47351532	     -9.86465584	     14.41611401	   -181.21830838	    824.82627972	     -1.77089416	      9.35487697	    -45.00000000	     42.89677185	    -45.00000000	    -33.06387737	   2062.00082797	  -2986.63723715	    147.86846253	   -109.86502039	   1465.48027056	    171.18883791	     11.46183022	      4.18235658	     16.92782192	     39.56461914	    -41.43236198	    -45.00000000	    -42.20992591	  -1715.39106717	  -1007.88552572	     26.90516563	     -3.31145712	   1808.24908075	   -336.05378389	      7.51941488	    -22.36418844
      5.64000000	    -41.49476612	     -9.72165287	     14.22374338	   -177.76180641	    824.64223616	     -1.61265005	      9.32993906	    -45.00000000	     43.25193413	    -45.00000000	    -32.16077321	   2062.20688838	  -2986.79137486	    147.87736797	   -109.78367746	   1465.41493783	    172.75067655	     11.31044381	      4.21027735	     16.79102266	     39.78323728	    -41.54119622	    -45.00000000	    -41.40633049	  -1715.38875439	  -1008.09468048	     27.03601372	     -3.24252742	   1808.25620311	   -336.79013009	      7.95951717	    -22.30106479
